Coordinates
version=1
nRows=24
nColumns=24
inDegrees=yes

Units are S.I. units (second, meters, Newtons, ...)
Angles are in degrees.

endheader
time	pelvis_tilt	pelvis_list	pelvis_rotation	pelvis_tx	pelvis_ty	pelvis_tz	hip_flexion_r	hip_adduction_r	hip_rotation_r	knee_angle_r	ankle_angle_r	subtalar_angle_r	mtp_angle_r	hip_flexion_l	hip_adduction_l	hip_rotation_l	knee_angle_l	ankle_angle_l	subtalar_angle_l	mtp_angle_l	lumbar_extension	lumbar_bending	lumbar_rotation
      0.86700000	     -4.76770865	     -0.91079395	     -3.87475382	     -0.12486524	      0.89187218	      0.33147802	    -11.43317100	      4.73642957	      1.11782692	     -8.84804585	     15.79945201	      5.92354287	      6.04861263	     31.64443811	     -2.36460177	     -9.92453109	    -15.10048365	      3.45855936	     -2.86625673	      1.54255967	     -4.45650034	      1.52755807	     10.76380848
      0.87116667	     -4.88423531	     -0.88361697	     -4.00729423	     -0.11902324	      0.89038905	      0.33141524	    -11.45908710	      4.63689388	      1.20151137	     -9.39735760	     16.04969553	      6.09917989	      6.36002522	     31.77182657	     -2.31671555	     -9.64042464	    -14.88571596	      3.39687648	     -2.90077986	      1.60183322	     -4.29448834	      1.45230205	     10.85951480
      0.87533333	     -4.98929465	     -0.84755029	     -4.12060965	     -0.11316578	      0.88893915	      0.33135075	    -11.48193001	      4.53483929	      1.30172953	     -9.98317724	     16.30216673	      6.20930142	      6.56683408	     31.90430704	     -2.25913090	     -9.36728934	    -14.81742271	      3.33474434	     -2.93466750	      1.64452759	     -4.14923787	      1.33300859	     10.93293278
      0.87950000	     -5.12286740	     -0.80490608	     -4.23325416	     -0.10729678	      0.88748581	      0.33124152	    -11.43065921	      4.41877479	      1.34627952	    -10.65126002	     16.52004853	      6.43573767	      6.80797592	     32.06090564	     -2.18679739	     -9.04369049	    -14.84434014	      3.24401776	     -3.05300846	      1.69744205	     -3.97124523	      1.23708360	     11.02425743
      0.88366667	     -5.21189532	     -0.73334117	     -4.32008885	     -0.10135904	      0.88615395	      0.33107113	    -11.40357547	      4.26269009	      1.29328769	    -11.36006029	     16.61026953	      6.68081128	     10.08420099	     32.14219373	     -2.06162953	     -8.69252197	    -14.90822352	      3.05727096	     -3.28990790	      2.49978736	     -3.82143565	      1.10769501	     11.04989409
      0.88783333	     -5.34240263	     -0.68981936	     -4.42511388	     -0.09546791	      0.88477406	      0.33096955	    -11.29890068	      4.14835145	      1.35836983	    -12.14517678	     16.79354901	      6.85687714	     10.13222189	     32.32242876	     -1.99995273	     -8.43463647	    -15.20057631	      2.98911316	     -3.40312308	      2.52197839	     -3.63843775	      0.99808924	     11.12120515
      0.89200000	     -5.46384944	     -0.61617469	     -4.50485376	     -0.08953342	      0.88346609	      0.33076582	    -11.15103008	      3.98684081	      1.27843127	    -13.03283395	     16.92237173	      7.22108174	     10.25657767	     32.46825921	     -1.87850791	     -8.12905112	    -15.51965290	      2.81088889	     -3.66699359	      2.56823615	     -3.45746461	      0.87851577	     11.17784961
      0.89616667	     -5.57674045	     -0.53477023	     -4.56517572	     -0.08357726	      0.88220885	      0.33054207	    -10.99144522	      3.82027749	      1.20466343	    -13.96465878	     17.03469120	      7.53038720	     10.45136647	     32.61615505	     -1.74201555	     -7.83712332	    -15.94466261	      2.62861893	     -3.95765625	      2.63371826	     -3.28566184	      0.72446376	     11.18780163
      0.90033333	     -5.69891685	     -0.44610820	     -4.62850295	     -0.07760923	      0.88098974	      0.33033643	    -10.79196533	      3.65111468	      1.18931867	    -14.95549804	     17.13012074	      7.74290708	     10.61067204	     32.78138506	     -1.60731428	     -7.59090275	    -16.46686806	      2.48664155	     -4.21639243	      2.68215188	     -3.09570345	      0.55017473	     11.16231269
      0.90450000	     -5.81598103	     -0.35407757	     -4.66996385	     -0.07162989	      0.87983293	      0.33004412	    -10.55012587	      3.46410390	      1.07102521	    -16.03240115	     17.15084088	      8.09702601	     10.82688971	     32.94319853	     -1.45113261	     -7.33656146	    -17.05328066	      2.30728709	     -4.55295847	      2.74194027	     -2.91040559	      0.38930404	     11.13202586
      0.90866667	     -5.91475091	     -0.24835220	     -4.69844446	     -0.06562515	      0.87876106	      0.32972686	    -10.29391222	      3.25772204	      0.93701530	    -17.17380928	     17.12398265	      8.45411912	     11.08947188	     33.08322048	     -1.27545203	     -7.10810915	    -17.69376221	      2.13422186	     -4.90868165	      2.80928652	     -2.74343140	      0.20603076	     11.07513633
      0.91283333	     -5.96209855	     -0.12926186	     -4.68773925	     -0.05957628	      0.87784041	      0.32930096	    -10.07027331	      3.02135345	      0.71275268	    -18.34086326	     16.92110689	      8.81627276	     15.30896913	     33.15006264	     -1.04942783	     -6.83471622	    -18.33600835	      1.90608579	     -5.39900774	      3.87037365	     -2.64084031	      0.01499325	     11.01479791
      0.91700000	     -6.06453407	     -0.02036022	     -4.71224054	     -0.05356633	      0.87689615	      0.32896509	     -9.73179116	      2.80517974	      0.61105187	    -19.61683504	     16.75294737	      9.12308364	     15.36997572	     33.30980991	     -0.88651036	     -6.72907116	    -19.10933993	      1.82228934	     -5.64978204	      3.88879132	     -2.46542249	     -0.17777652	     10.91260784
      0.92116667	     -6.10475547	      0.12089253	     -4.68710791	     -0.04752836	      0.87610758	      0.32847246	     -9.41456936	      2.52485011	      0.34229899	    -20.97402737	     16.58291560	      9.64864480	     15.62764437	     33.37588743	     -0.63804009	     -6.53807547	    -19.84211744	      1.65604407	     -6.10577407	      3.93595664	     -2.37342360	     -0.39574698	     10.80575252
      0.92533333	     -6.19814337	      0.23144061	     -4.67377555	     -0.04152532	      0.87531965	      0.32805498	     -9.00716193	      2.29764611	      0.20905127	    -22.37562429	     16.24516697	      9.94195617	     15.78896656	     33.51791039	     -0.45277519	     -6.41690493	    -20.65731220	      1.65141990	     -6.36668663	      3.96075456	     -2.20805304	     -0.59597893	     10.67659130
      0.92950000	     -6.18889934	      0.41121877	     -4.63359688	     -0.03548508	      0.87477457	      0.32747217	     -8.64881744	      1.94387313	     -0.10699477	    -23.88200026	     15.92875667	     10.52325252	     16.53315892	     33.49190769	     -0.14606930	     -6.23428956	    -21.35699238	      1.53777090	     -6.88128727	      4.04001808	     -2.17731032	     -0.84624599	     10.52150972
      0.93366667	     -6.25941205	      0.52579678	     -4.57733911	     -0.02950721	      0.87416440	      0.32695132	     -8.18300897	      1.69260944	     -0.30224979	    -25.39988406	     15.37742692	     10.78075851	     20.21638753	     33.60392883	      0.06416053	     -6.12380397	    -22.19266441	      1.56681616	     -7.17424975	      4.36012926	     -2.04328310	     -1.03711831	     10.37263082
      0.93783333	     -6.29122162	      0.66777646	     -4.53009028	     -0.02352853	      0.87369704	      0.32641978	     -7.70484023	      1.38876980	     -0.51952960	    -27.00872698	     14.84503093	     11.18742626	     20.29600680	     33.65415313	      0.28670487	     -6.10060736	    -23.00613073	      1.65781662	     -7.31587554	      4.36924198	     -1.95819347	     -1.25624879	     10.19343227
      0.94200000	     -6.30637189	      0.82944850	     -4.46688254	     -0.01756756	      0.87333871	      0.32584036	     -7.19950396	      1.04978826	     -0.76333125	    -28.67979743	     14.23551821	     11.61284956	     20.43946167	     33.65857187	      0.54806339	     -6.03947008	    -23.76718883	      1.77899224	     -7.54100553	      4.37499498	     -1.89412074	     -1.50039327	     10.00713068
      0.94616667	     -6.27086009	      1.02585001	     -4.39895448	     -0.01160687	      0.87314848	      0.32519717	     -6.70778061	      0.64576797	     -1.03357146	    -30.39807931	     13.55664375	     12.11934123	     20.92415454	     33.56651139	      0.86584669	     -5.94559918	    -24.45000422	      1.92194616	     -7.90810877	      4.37188437	     -1.90468870	     -1.79244128	      9.79378589
      0.95033333	     -6.26796992	      1.23298021	     -4.33711340	     -0.00567638	      0.87300774	      0.32460400	     -6.13711872	      0.23458900	     -1.25889932	    -32.15727273	     12.70156923	     12.42916864	     23.42307871	     33.49099811	      1.16791318	     -5.93616395	    -25.09433332	      2.03692322	     -8.14748871	      4.29684002	     -1.86459300	     -2.10240772	      9.57570127
      0.95450000	     -6.24634038	      1.38647278	     -4.23214494	      0.00019590	      0.87291998	      0.32397236	     -5.56032838	     -0.12116398	     -1.51492177	    -33.95174486	     11.81634990	     12.79440689	     23.50395814	     33.41978439	      1.42146116	     -5.91677817	    -25.80676411	      2.38461780	     -8.10520833	      4.30273874	     -1.84973197	     -2.32974429	      9.40852517
      0.95866667	     -6.20761332	      1.59084443	     -4.14570095	      0.00604522	      0.87295680	      0.32334017	     -4.95151419	     -0.55204687	     -1.75757886	    -35.79953893	     10.87303840	     13.15903961	     23.63003563	     33.27644744	      1.72355696	     -5.92464553	    -26.40269675	      2.67239401	     -8.17617711	      4.30119273	     -1.86370815	     -2.62969062	      9.19399557
      0.96283333	     -6.14841560	      1.80782413	     -4.05459654	      0.01186252	      0.87310524	      0.32270105	     -4.33152842	     -1.00762838	     -1.99885474	    -37.67024832	      9.84381945	     13.49274571	     23.77830365	     33.07853377	      2.04089646	     -5.93662799	    -26.93037056	      2.98257395	     -8.23346985	      4.29619167	     -1.90659820	     -2.94435751	      8.97647477
